<?xml version="1.0" encoding="utf-8"?>
<!-- Generator: Adobe Illustrator 19.0.0, SVG Export Plug-In . SVG Version: 6.00 Build 0)  -->
<svg version="1.1" id="Layer_1" xmlns="http://www.w3.org/2000/svg" xmlns:xlink="http://www.w3.org/1999/xlink" x="0px" y="0px"
	 viewBox="0 0 250.1 65.9" style="enable-background:new 0 0 250.1 65.9;" xml:space="preserve">
<style type="text/css">
	.st0{fill:#010101;}
</style>
<g>
	<path class="st0" d="M80.6,21.4c11-2.1,15.3-0.6,16.2,3.2c0.8,3.3-1.4,8.3-3.9,14.2c-2.6,6.1-5.7,12.2-6.4,19.5
		c-0.5,6.4,0,8.8-1.8,7c-1-9.5,3.1-19.3,6.5-27.2c2.4-5.6,4.4-10.3,3.8-13.1c-1.1-4.5-8.8-2.3-12-1.5c-1.4,0.4-2.8,0.1-3.5,0.7
		c-2.2,1.6-3.4-1.7-2.1-2.2C78,21.8,79.8,21.6,80.6,21.4L80.6,21.4z"/>
	<path class="st0" d="M107.8,21.3c1.5,0.1-1.8,7.6-2.8,12c-1,4.5-2,9.2-2.9,13.5c-0.6,0.4-2.5,1.8-1.8-0.3c0.9-4.4,1.9-9.1,2.9-13.6
		c0.6-2.5,1.1-4.9,1.7-7.2C104.5,23.6,105.1,20.7,107.8,21.3L107.8,21.3z"/>
	<path class="st0" d="M8.8,38.7c13.3-0.4,25.7-0.6,38.4-0.7c15.2-0.2,30.4-0.1,47.1,0.3c2.1-0.1,4.1,1.4,1.9,1.7l-1.8,0.1l-0.1,0
		c-16.7-0.4-31.9-0.5-47-0.3C34.7,40,22.2,40.5,8.8,41c-2.8,0.1-5.7,0.7-8.6,0.9C-1.1,38,4.5,38.9,8.8,38.7L8.8,38.7z"/>
	<path class="st0" d="M120.2,14.6c-3.6,12-5.8,21.9-8.1,33c-0.4,1.7-0.9,9.6-2,9.2l-1.8,0.4c-0.3-0.9,0.8-4.4,1.4-7.1
		c2.6-12.3,4.9-22.8,8.8-35.9L120.2,14.6L120.2,14.6z"/>
	<path class="st0" d="M130.8,2.9c-1.5,3.1-3.2,4.8-4.4,7.8c-1.2,3.1-1.1,3.1-2,6c-2.4,7.3-3.9,13.6-4.8,17.4
		c-0.9,4.3-0.6,4.8,0.8,3.9c1.2-1,2.6-2.3,4.2-3.1c2.3-1.2,4.8-1.3,7,1.4c1.9,2.4,1.4,4.4,4.6-0.5c0.1-0.1,0.1-0.2,0.2-0.2
		c-0.2-0.4-0.1-0.8,0.3-1.4c0.9-1.2,1.6-1.5,2.1-1.2l0,0c0.1,0.1,0.2,0.3,0.2,0.7c0.9-0.3,2-0.7,3-0.6c1.5,0.1,2.5,1,2.3,3.6
		c0,0.5,0,0.8,0.1,1.2c0.1,0.5,0.4,0.9,0.8,1.2c1.6,1,8.6,0.4,10.3,0c1.1-6.3,14.5-4,3.2,0.7c1.9,1.7,10.1,1.7,12.2,0.7
		c0-0.3,0-0.6,0.2-0.9c0.2-0.5,0.6-0.9,1.1-1.2c1.9-1.4,3.5-1.8,4.5-1.7c0.5,0.1,0.9,0.3,1.2,0.6c0.3,0.4,0.4,0.8,0.3,1.3
		c-0.2,0.7-0.8,1.5-1.9,2.1c-0.3,0.2-0.7,0.3-1.1,0.5c3,0.7,8.7,1.2,18.7,1.3c12.2,0.1,22,0,30.8-0.3c4.6-0.1,8.9-0.3,13.2-0.6
		c4.1-0.2,11.1-2.7,12.3-0.9c0.5,1.9-4.8,2.2-8.3,2.4c-5.6,0.4-11.2,0.7-17.2,0.9c-8.9,0.3-18.7,0.4-30.9,0.3
		c-11.4-0.1-17.3-0.7-20.1-1.6c-0.6-0.2-1.1-0.4-1.5-0.6c-7.5,1.7-14.1,0.2-15.8-1.4c-2.7,0.7-10,1.4-12.2-0.1
		c-0.8-0.5-1.3-1.3-1.5-2.3c-0.1-0.5-0.1-1.1-0.1-1.7c0.1-1.2-0.2-1.6-0.7-1.6c-0.8-0.1-2,0.4-2.9,0.8c-0.2,0.1-0.4,0.2-0.6,0.2
		c-0.2,0.3-0.3,0.6-0.5,0.9c-1.2,1.8-4.6,6.1-6.4,2.5c-1.8-3.6-3.9-3.7-5.9-2.8c-1.4,0.7-2.7,1.9-3.8,2.8c-1.4,1.2-2.4,2.1-3.4,1.9
		c-1.2-0.3-1.5-2.2-0.3-7.5c0.8-3.9,2.4-10.2,4.8-17.6c0.9-2.8,1.9-5.7,3.1-8.7c0.7-1.8,2.1-5,2.8-6.5c0.6-1.2,1-1,1.8-0.6
		C131.5,0.8,131.4,1.5,130.8,2.9L130.8,2.9z M157.6,38.2C164.6,35.3,157.5,37.1,157.6,38.2L157.6,38.2z M173,39.9
		c0.9-0.3,1.7-0.5,2.3-0.9c0.4-0.2,0.7-0.4,0.9-0.6c-0.6,0-1.6,0.3-3,1.3C173.1,39.8,173,39.8,173,39.9L173,39.9z"/>
	<path class="st0" d="M94.9,14c7.2-0.5,14.1-0.6,21-0.4c7.4,0.2,14.7,0.6,22.1,1c0.8,0,1.6,2.1,0.2,2.1c-2.8,0.2-4.2-0.4-5.7-0.6
		c-5.5-0.7-11-0.6-16.6-0.7c-8.7-0.2-14.2,0.5-22.5,1.1c-0.4,0.1-0.5-1.2-0.4-2.1C93,13.7,94.2,14.1,94.9,14L94.9,14z"/>
</g>
</svg>
