<svg width="175" height="47" viewBox="0 0 175 47" fill="none" xmlns="http://www.w3.org/2000/svg">
<g clip-path="url(#clip0_8323_28254)">
<path d="M56.3883 15.8627C64.0852 14.3933 67.094 15.4429 67.7238 18.1019C68.2836 20.4109 66.7442 23.9095 64.9949 28.0379C63.1756 32.3062 61.0065 36.5745 60.5167 41.6824C60.1668 46.1606 60.5167 47.84 59.2572 46.5805C58.5574 39.9331 61.4263 33.0759 63.8053 27.5481C65.4847 23.6296 66.8841 20.341 66.4643 18.3817C65.6946 15.233 60.3068 16.7724 58.0676 17.3322C57.088 17.612 56.1084 17.4021 55.6186 17.822C54.0792 18.9415 53.2396 16.6324 54.1492 16.2826C54.569 16.1426 55.8285 16.0027 56.3883 15.8627Z" fill="white"/>
<path d="M75.4251 15.7982C76.4746 15.8682 74.1656 21.1161 73.4658 24.1949C72.7661 27.3436 72.0664 30.6323 71.4366 33.6411C71.0168 33.921 69.6873 34.9006 70.1771 33.4312C70.8069 30.3524 71.5066 27.0637 72.2063 23.915C72.6262 22.1657 72.976 20.4864 73.3959 18.877C73.116 17.4076 73.5358 15.3784 75.4251 15.7982Z" fill="white"/>
<path d="M6.15138 27.9738C15.4577 27.694 24.1342 27.554 33.0206 27.484C43.6564 27.3441 54.2921 27.4141 65.9774 27.694C67.4469 27.624 68.8463 28.6736 67.3069 28.8835L66.0474 28.9534H65.9774C54.2921 28.6736 43.6564 28.6036 33.0906 28.7435C24.2741 28.8835 15.5276 29.2333 6.15138 29.5832C4.19216 29.6532 2.16298 30.073 0.133787 30.2129C-0.775849 27.484 3.14258 28.1138 6.15138 27.9738Z" fill="white"/>
<path d="M84.0966 11.108C81.5776 19.5047 80.0382 26.4319 78.4289 34.1988C78.149 35.3883 77.7991 40.9161 77.0294 40.6362L75.77 40.9161C75.56 40.2863 76.3297 37.8373 76.7496 35.9481C78.5688 27.3415 80.1782 19.9945 82.9071 10.8281L84.0966 11.108Z" fill="white"/>
<path d="M91.5147 2.91912C90.4651 5.08825 89.2756 6.27778 88.436 8.37694C87.5963 10.5461 87.6663 10.5461 87.0365 12.5753C85.3572 17.6832 84.3076 22.0915 83.6779 24.7504C83.0481 27.7592 83.258 28.109 84.2376 27.4793C85.0773 26.7796 86.0569 25.8699 87.1765 25.3102C88.7858 24.4705 90.5351 24.4005 92.0745 26.2898C93.404 27.9691 93.0541 29.3685 95.2932 25.9399C95.3632 25.8699 95.3632 25.8 95.4332 25.8C95.2932 25.5201 95.3632 25.2402 95.6431 24.8204C96.2728 23.9807 96.7626 23.7708 97.1125 23.9807C97.1825 24.0507 97.2524 24.1906 97.2524 24.4705C97.8822 24.2606 98.6519 23.9807 99.3516 24.0507C100.401 24.1206 101.101 24.7504 100.961 26.5697C100.961 26.9195 100.961 27.1294 101.031 27.4093C101.101 27.7592 101.311 28.0391 101.591 28.249C102.71 28.9487 107.608 28.5289 108.798 28.249C109.568 23.8408 118.944 25.4501 111.037 28.7388C112.366 29.9283 118.104 29.9283 119.573 29.2286C119.573 29.0187 119.574 28.8088 119.713 28.5988C119.853 28.249 120.133 27.9691 120.483 27.7592C121.813 26.7796 122.932 26.4997 123.632 26.5697C123.982 26.6396 124.262 26.7796 124.472 26.9895C124.681 27.2694 124.751 27.5493 124.681 27.8991C124.542 28.3889 124.122 28.9487 123.352 29.3685C123.142 29.5085 122.862 29.5785 122.582 29.7184C124.681 30.2082 128.67 30.5581 135.667 30.628C144.204 30.698 151.061 30.628 157.218 30.4181C160.437 30.3482 163.446 30.2082 166.455 29.9983C169.324 29.8583 174.222 28.109 175.061 29.3685C175.411 30.698 171.703 30.9079 169.254 31.0479C165.335 31.3278 161.417 31.5377 157.218 31.6776C150.991 31.8875 144.134 31.9575 135.597 31.8875C127.62 31.8176 123.492 31.3977 121.533 30.768C121.113 30.628 120.763 30.4881 120.483 30.3481C115.235 31.5377 110.617 30.4881 109.428 29.3685C107.538 29.8583 102.43 30.3481 100.891 29.2986C100.331 28.9487 99.9813 28.3889 99.8414 27.6892C99.7714 27.3394 99.7714 26.9195 99.7714 26.4997C99.8414 25.66 99.6315 25.3801 99.2816 25.3801C98.7218 25.3102 97.8822 25.66 97.2524 25.9399C97.1125 26.0099 96.9725 26.0799 96.8326 26.0799C96.6926 26.2898 96.6227 26.4997 96.4827 26.7096C95.6431 27.9691 93.264 30.9779 92.0045 28.4589C90.745 25.9399 89.2756 25.8699 87.8762 26.4997C86.8966 26.9895 85.9869 27.8292 85.2172 28.4589C84.2376 29.2986 83.5379 29.9283 82.8382 29.7884C81.9985 29.5785 81.7886 28.249 82.6283 24.5405C83.1881 21.8116 84.3076 17.4033 85.9869 12.2254C86.6167 10.2662 87.3164 8.23699 88.1561 6.13783C88.6459 4.87834 89.6255 2.63923 90.1153 1.58965C90.5351 0.74999 90.815 0.889934 91.3748 1.16982C92.0045 1.44971 91.9346 1.93951 91.5147 2.91912ZM110.267 27.6192C110.197 26.8496 115.165 25.5901 110.267 27.6192V27.6192ZM121.043 28.8088C121.673 28.5989 122.232 28.4589 122.652 28.179C122.932 28.0391 123.142 27.8991 123.282 27.7592C122.862 27.7592 122.162 27.9691 121.183 28.6688C121.113 28.7388 121.043 28.7388 121.043 28.8088Z" fill="white"/>
<path d="M66.4016 10.6834C71.4396 10.3335 76.2676 10.2636 81.0957 10.4035C86.2736 10.5435 91.3816 10.8233 96.5595 11.1032C97.1193 11.1032 97.6791 12.5726 96.6995 12.5726C94.7402 12.7126 93.7606 12.2928 92.7111 12.1528C88.8626 11.663 85.0141 11.733 81.0957 11.663C75.0081 11.5231 71.1597 12.0129 65.352 12.4327C65.0721 12.5027 65.0021 11.593 65.0721 10.9633C65.0721 10.4735 65.9118 10.7534 66.4016 10.6834Z" fill="white"/>
</g>
<defs>
<clipPath id="clip0_8323_28254">
<rect width="175" height="46.1116" fill="white" transform="translate(0 0.890625)"/>
</clipPath>
</defs>
</svg>
